<svg width="333" height="118" viewBox="0 0 333 118" fill="none" xmlns="http://www.w3.org/2000/svg">
<g clip-path="url(#clip0_16_96)">
<path d="M68.9004 93.5449H49.7227L21.0234 22.4551H40.2021L68.9004 93.5449ZM95.9766 22.4551L76.7988 71.6357L67.9688 71.6875L62.5781 58.7607L76.7988 22.4551H95.9766Z" fill="#BFEF01"/>
</g>
<path d="M134.058 66.8116H136.308L144.355 42.9347H152.992L141.881 74.5314H128.433L117.32 42.9347H126.009L134.058 66.8116ZM181.653 74.5314H172.958L170.174 67.004H157.18L154.395 74.5314H145.699L156.251 42.9347H171.102L181.653 74.5314ZM218.016 48.6193V58.0421L213.912 62.3439L219.383 74.5314H210.199L205.46 63.7267H192.271V74.5314H183.136V42.9347H212.544L218.016 48.6193ZM230.14 48.1066H230.091L229.993 71.4083V74.5314H221.444V71.4083L221.347 48.1066V42.9347H230.14V48.1066ZM267.409 48.6193V55.6349L264.967 58.2472L268.826 62.0363V68.8478L263.403 74.5314H233.066V42.9347H261.986L267.409 48.6193ZM280.651 66.7482H297.163V74.5314H271.517V42.9347H280.651V66.7482ZM332.109 50.7189H309.002V55.1232H330.302V62.3439H309.002V66.7482H332.109V74.5314H299.867V42.9347H332.109V50.7189ZM242.202 67.2599H257.981L259.69 65.4679V63.9825L257.981 62.1896H242.202V67.2599ZM159.476 59.629H167.878L164.556 50.1554H162.797L159.476 59.629ZM192.271 56.4542H207.414L209.124 54.6622V51.9991L207.414 50.2072H192.271V56.4542ZM242.202 55.5323H256.955L258.665 53.7404V51.9991L256.955 50.2072H242.202V55.5323Z" fill="white"/>
<defs>
<clipPath id="clip0_16_96">
<rect width="75" height="72" fill="white" transform="translate(21 22)"/>
</clipPath>
</defs>
</svg>
